# xmcd
#
# Track frame offsets: 
#        150
#        13207
#        27285
#        39805
#        51995
#        67145
#        79302
#        89722
#        100925
#        116737
#        128127
#        144642
#        168532
#        180912
#        193280
#        204300
#        216042
#        226130
#        236042
#        250210
#
# Disc length: 3518 seconds
#
# Revision: 2
# Processed by: cddbd v1.5.1PL2 Copyright (c) Steve Scherf et al.
# Submitted via: ExactAudioCopy v0.90b4
#
DISCID=220dbc14
DTITLE=Hildegard Knef - Für mich soll's rote Rosen regnen [CD1)
DYEAR=1995
DGENRE=Chanson
TTITLE0=Eins und eins, das macht zwei
TTITLE1=Das Lied vom Leierkastenmann
TTITLE2=Er war nie ein Kavalier
TTITLE3=und der Mann mit der Harmonika
TTITLE4=Fever (Englisch)
TTITLE5=Lola und Jonny (Frankie And Johnny)
TTITLE6=Wiegenlied für ein Wunderkind
TTITLE7=Da kannst Du was, da hast Du was
TTITLE8=The Man I Love (Englisch)
TTITLE9=Wenn die Welt zu ändern wär'
TTITLE10=Grauer Regen
TTITLE11=Das Brautkleid trug sie zur Maienzeit (Greensleeves)
TTITLE12=Das geht beim ersten Mal vorbei
TTITLE13=Karussell-Karussell
TTITLE14=Wer will mit mir tanzen?
TTITLE15=Sei doch so wie damals
TTITLE16=Je t'attends (Französisch)
TTITLE17=Frag' nicht warum ich gehe (Das Lied ist aus)
TTITLE18=Er hieß nicht von Oertzen
TTITLE19=Aber schön war es doch
EXTD=east west 1995 hildegard knef 7cd set\n
EXTT0=
EXTT1=
EXTT2=
EXTT3=
EXTT4=
EXTT5=
EXTT6=
EXTT7=
EXTT8=
EXTT9=
EXTT10=
EXTT11=
EXTT12=
EXTT13=
EXTT14=
EXTT15=
EXTT16=
EXTT17=
EXTT18=
EXTT19=
PLAYORDER=
